<?xml version="1.0" standalone="no"?>
<!DOCTYPE svg PUBLIC "-//W3C//DTD SVG 20010904//EN"
 "http://www.w3.org/TR/2001/REC-SVG-20010904/DTD/svg10.dtd">
<svg version="1.0" xmlns="http://www.w3.org/2000/svg"
 width="512.000000pt" height="512.000000pt" viewBox="0 0 512.000000 512.000000"
 preserveAspectRatio="xMidYMid meet">
<metadata>
Created by potrace 1.14, written by Peter Selinger 2001-2017
</metadata>
<g transform="translate(0.000000,512.000000) scale(0.100000,-0.100000)"
fill="#000000" stroke="none">
<path d="M3311 4323 l0 -148 69 1 c38 0 73 3 76 7 5 5 9 179 5 265 -1 21 -5
22 -75 22 l-75 0 0 -147z"/>
<path d="M2690 4284 c-30 -18 -59 -35 -64 -37 -9 -3 20 -64 59 -127 12 -19 34
-57 49 -83 l27 -48 57 32 c31 18 60 35 65 39 6 6 -15 46 -117 221 l-21 36 -55
-33z"/>
<path d="M3953 4188 l-70 -123 65 -38 c35 -21 65 -36 67 -35 1 2 33 58 72 125
51 87 68 125 60 131 -23 17 -106 62 -114 62 -5 0 -41 -55 -80 -122z"/>
<path d="M1957 4035 c-1 -2 -40 -5 -87 -9 -581 -43 -1047 -489 -1105 -1056 -4
-36 -10 -67 -13 -70 -4 -3 -40 -14 -81 -24 -41 -10 -115 -39 -163 -63 l-89
-45 20 -32 20 -32 -27 -16 c-15 -9 -43 -30 -62 -47 l-35 -30 -26 25 -26 25
-44 -52 c-172 -202 -250 -414 -235 -643 7 -110 11 -131 37 -221 69 -232 239
-430 466 -545 60 -30 166 -67 218 -76 17 -2 39 -8 50 -11 11 -4 222 -7 468 -8
l449 -1 21 38 22 38 83 0 84 0 -20 -33 c-35 -60 -64 -160 -63 -215 2 -103 76
-208 180 -255 65 -30 168 -29 238 2 141 62 214 238 155 374 -12 26 -18 48 -14
48 4 1 248 2 542 3 l535 1 3 38 3 37 75 0 74 0 0 -35 c0 -19 3 -36 8 -36 4 -1
37 -2 75 -3 l67 -1 0 37 0 38 75 0 75 0 0 -38 0 -38 208 2 c259 3 356 22 507
101 300 157 482 446 491 778 3 127 -7 200 -42 303 -81 234 -242 417 -469 530
-74 37 -197 79 -243 81 -10 1 -12 11 -7 39 17 106 -2 305 -41 422 -93 281
-322 514 -602 614 -207 74 -462 72 -666 -5 -67 -25 -221 -110 -258 -143 -73
-64 -63 -62 -105 -28 -126 99 -319 184 -493 217 -34 7 -228 23 -233 20z"/>
<path d="M4556 3821 c-4 -5 -56 -37 -117 -71 -125 -71 -124 -70 -71 -154 l28
-44 122 70 c67 38 122 74 122 80 0 11 -69 128 -75 128 -2 0 -6 -4 -9 -9z"/>
<path d="M4510 3055 l0 -75 145 0 145 0 0 75 0 75 -145 0 -145 0 0 -75z"/>
</g>
</svg>
